<?xml version="1.0" encoding="UTF-8"?>
<svg id="svg2" xmlns="http://www.w3.org/2000/svg" version="1.1" xmlns:cc="http://creativecommons.org/ns#" xmlns:dc="http://purl.org/dc/elements/1.1/" xmlns:inkscape="http://www.inkscape.org/namespaces/inkscape" xmlns:rdf="http://www.w3.org/1999/02/22-rdf-syntax-ns#" xmlns:sodipodi="http://sodipodi.sourceforge.net/DTD/sodipodi-0.dtd" xmlns:svg="http://www.w3.org/2000/svg" viewBox="0 0 824.24 105.44">
  <!-- Generator: Adobe Illustrator 30.2.1, SVG Export Plug-In . SVG Version: 2.1.1 Build 1)  -->
  <defs>
    <style>
      .st0 {
        fill: #fff;
      }

      .st0, .st1 {
        fill-rule: evenodd;
      }

      .st1 {
        fill: #e30016;
      }
    </style>
  </defs>
  <sodipodi:namedview id="namedview11" bordercolor="#666666" borderopacity="1" gridtolerance="10" guidetolerance="10" inkscape:current-layer="svg2" inkscape:cx="244.68084" inkscape:cy="367.65189" inkscape:deskcolor="#d1d1d1" inkscape:pagecheckerboard="0" inkscape:pageopacity="0" inkscape:pageshadow="2" inkscape:showpageshadow="2" inkscape:window-height="1369" inkscape:window-maximized="1" inkscape:window-width="2560" inkscape:window-x="-8" inkscape:window-y="-8" inkscape:zoom="0.79286959" objecttolerance="10" pagecolor="#ffffff" showgrid="false"/>
  <path id="path4" class="st0" d="M190,10.09l-16.27,20.43h-48.81l-17.47,22.3,18.08,21.69h47.6l16.27,20.84h-76.53l-33.99-42.63L113.47,10.09h76.53Z" inkscape:connector-curvature="0"/>
  <path id="path6" class="st0" d="M295.45,10.09h24.1l.6,61.41,47.6-61.41h39.77v85.26h-24.71v-62.42l-48.81,62.42h-38.57V10.09Z" inkscape:connector-curvature="0"/>
  <path id="path8" class="st1" d="M417.77,95.35V10.09h37.96l50.01,61.41V10.09h24.71v85.26h-37.96l-48.81-62.42v62.42h-25.91Z" inkscape:connector-curvature="0"/>
  <path id="path10" class="st0" d="M543.71,10.09h170.53l25.31,32.48-18.08,20.49,23.9,32.29h-25.7l-14.46-21.44h-29.53v-19.88h27.12l9.64-10.85-10.24-13.26h-134.38l-.6,14.46h51.82l-10.24,15.67h-40.98v13.86h49.41l16.27,21.44h-89.78V10.09Z" inkscape:connector-curvature="0"/>
  <path id="path12" class="st0" d="M641.93,36.55v58.8h25.91v-58.8h-25.91Z" inkscape:connector-curvature="0"/>
  <path id="path14" class="st0" d="M197.34,51.61l17.36-21.09h40.37l7.23,7.83v35.55h-47.6l-17.36-22.3ZM168.91,51.61l34.95-41.52h61.46l21.69,25.86v59.4h-83.76l-34.35-43.74Z" inkscape:connector-curvature="0"/>
</svg>